<?xml version="1.0" standalone="no"?>
<!DOCTYPE svg PUBLIC "-//W3C//DTD SVG 20010904//EN"
 "http://www.w3.org/TR/2001/REC-SVG-20010904/DTD/svg10.dtd">
<svg version="1.0" xmlns="http://www.w3.org/2000/svg"
 width="500.000000pt" height="500.000000pt" viewBox="0 0 500.000000 500.000000"
 preserveAspectRatio="xMidYMid meet">

<g transform="translate(0.000000,500.000000) scale(0.100000,-0.100000)"
fill="#000000" stroke="none">
<path d="M2300 4374 c-772 -97 -1375 -680 -1490 -1444 -14 -96 -14 -393 0
-490 53 -350 209 -670 450 -924 239 -251 521 -410 870 -493 142 -34 460 -43
620 -19 424 65 800 282 1070 617 170 212 283 453 342 725 20 96 23 136 23 339
0 250 -7 305 -66 498 -183 599 -685 1049 -1309 1172 -83 17 -427 29 -510 19z
m472 -64 c637 -105 1165 -591 1323 -1220 63 -250 64 -559 0 -810 -118 -474
-459 -887 -897 -1089 -475 -219 -1014 -207 -1476 34 -249 130 -485 350 -631
588 -186 304 -272 658 -242 998 14 164 32 255 82 404 161 478 546 866 1017
1026 271 92 543 115 824 69z"/>
<path d="M2362 4213 c-22 -4 -22 -7 -16 -77 6 -66 4 -76 -15 -95 -38 -38 -48
-28 -56 57 -9 99 -12 105 -59 97 -34 -7 -37 -10 -32 -34 3 -14 15 -102 26
-196 28 -232 23 -217 68 -213 42 3 40 -3 27 121 -6 62 -6 67 12 67 29 0 61
-40 68 -85 13 -83 14 -85 43 -85 48 0 53 9 41 79 -11 73 -17 87 -52 120 l-25
23 19 32 c19 32 24 89 13 159 -7 38 -10 40 -62 30z"/>
<path d="M2566 4179 c-3 -24 -13 -108 -21 -186 -15 -129 -15 -145 0 -172 42
-82 159 -86 209 -8 11 18 38 213 49 357 2 23 -2 25 -38 25 l-40 0 -18 -170
c-11 -93 -24 -176 -29 -182 -15 -19 -46 -16 -56 5 -6 10 -2 80 10 186 10 92
17 170 15 173 -3 2 -20 6 -40 10 -35 5 -35 5 -41 -38z"/>
<path d="M2955 4147 c-3 -7 -36 -100 -75 -207 -38 -107 -66 -197 -62 -200 4
-4 20 -12 35 -18 27 -12 28 -11 47 33 10 24 24 62 31 85 14 45 30 51 53 18 21
-30 20 -57 -4 -117 -21 -54 -17 -64 31 -76 23 -6 27 -2 43 38 25 65 30 111 17
148 -10 30 -9 34 28 65 26 23 45 52 61 94 25 66 22 76 -25 86 -29 5 -31 3 -48
-47 -21 -59 -56 -99 -87 -99 -26 0 -25 13 5 94 14 37 25 72 25 80 0 17 -70 39
-75 23z"/>
<path d="M1880 4093 c-54 -48 -52 -83 20 -273 35 -91 64 -166 65 -168 2 -2 67
19 74 24 2 1 -5 24 -14 49 -20 50 -16 60 27 70 25 6 28 4 39 -35 15 -50 26
-56 67 -38 l31 13 -65 170 c-74 196 -88 215 -164 215 -40 0 -56 -5 -80 -27z
m104 -65 c8 -13 26 -53 40 -90 l24 -66 -30 -13 c-38 -16 -45 -8 -78 90 -20 58
-22 72 -11 85 19 22 38 20 55 -6z"/>
<path d="M3229 3874 c-112 -168 -124 -194 -109 -240 18 -52 62 -84 119 -84 38
0 54 5 73 25 39 39 201 294 195 308 -5 13 -55 43 -60 36 -2 -2 -47 -70 -100
-151 -100 -153 -123 -173 -147 -127 -10 18 1 39 79 158 50 75 93 144 96 153 4
10 -4 23 -24 37 l-30 22 -92 -137z"/>
<path d="M1564 3926 c-40 -40 -46 -92 -14 -143 26 -43 61 -60 145 -68 82 -8
115 -25 115 -60 0 -37 -32 -49 -63 -25 -31 24 -36 24 -66 1 l-25 -19 36 -36
c28 -28 44 -36 73 -36 97 0 155 96 105 177 -26 43 -66 62 -157 73 -60 8 -82
15 -95 31 -22 26 -22 33 -2 53 20 21 31 20 51 -4 22 -25 31 -25 63 0 l25 20
-37 35 c-53 49 -106 49 -154 1z"/>
<path d="M2283 3600 c-348 -90 -611 -354 -694 -696 -28 -112 -30 -323 -5 -426
83 -349 346 -620 689 -710 118 -32 346 -32 464 0 345 90 603 356 690 710 26
104 23 313 -5 426 -87 348 -348 608 -700 696 -106 27 -335 27 -439 0z m133
-181 c-15 -9 -264 -114 -353 -150 -35 -13 -27 -3 24 32 97 67 226 115 338 127
6 1 2 -3 -9 -9z m224 0 c83 -13 200 -60 270 -107 l54 -37 -49 -5 -50 -5 49
-13 c75 -20 119 -46 169 -102 78 -87 84 -187 18 -318 -136 -269 -535 -547
-819 -569 -176 -13 -299 75 -303 217 l-1 45 -10 -40 c-13 -54 -3 -147 22 -194
27 -54 91 -105 157 -126 79 -25 228 -16 343 20 235 75 495 266 630 465 44 65
100 176 100 200 1 11 4 9 13 -5 8 -13 12 -67 11 -165 0 -129 -3 -154 -27 -225
-15 -44 -43 -109 -64 -144 -38 -65 -147 -184 -213 -234 l-35 -27 80 0 c44 -1
98 -5 120 -9 l40 -8 -35 -6 c-19 -4 -87 -9 -150 -11 -96 -4 -130 -10 -210 -37
-89 -31 -104 -33 -235 -33 -105 -1 -156 4 -205 17 -200 56 -384 208 -474 392
-55 113 -70 183 -70 330 -1 109 3 142 23 205 22 72 69 176 76 168 1 -1 17 -46
35 -98 66 -198 204 -436 336 -579 l69 -73 58 11 c31 7 57 15 57 17 0 3 -20 33
-44 67 -53 75 -75 119 -110 215 -28 78 -63 247 -68 326 l-3 49 228 105 229
105 -7 61 c-4 34 -9 63 -11 65 -2 2 -132 -58 -289 -135 l-285 -138 0 -52 c0
-156 80 -390 197 -572 59 -92 17 -46 -51 56 -114 170 -175 325 -196 492 -5 46
-10 87 -10 91 0 3 108 57 240 120 231 109 241 114 236 138 -3 15 -8 43 -12 64
l-6 37 58 0 c33 0 88 -5 124 -11z"/>
<path d="M2735 3191 c-33 -16 -157 -70 -275 -121 -118 -51 -218 -96 -222 -99
-10 -10 19 -189 47 -284 14 -48 38 -116 54 -151 37 -81 108 -186 126 -186 26
0 190 90 271 150 l81 59 -14 63 c-25 110 -18 401 13 566 8 40 0 40 -81 3z
m-407 -221 c-31 -26 -38 -38 -44 -86 -3 -30 -8 -54 -9 -52 -1 2 -5 30 -9 63
l-7 61 43 21 c60 30 69 28 26 -7z m189 -20 c3 -11 11 -20 19 -20 33 0 96 -34
109 -60 14 -26 13 -27 -22 -38 -31 -10 -38 -9 -49 6 -18 25 -26 10 -13 -26 9
-27 16 -32 45 -32 109 0 152 -116 69 -189 -20 -18 -32 -36 -29 -44 3 -10 -6
-18 -27 -26 -40 -14 -37 -14 -41 5 -2 11 -16 17 -47 19 -31 3 -52 11 -72 31
-37 36 -37 51 4 62 26 8 36 5 54 -11 30 -27 36 -19 20 28 -11 32 -18 38 -46
40 -69 6 -106 46 -104 113 1 28 9 44 35 68 27 24 33 36 27 52 -6 17 -3 23 19
31 39 14 43 13 49 -9z"/>
<path d="M2464 2827 c-9 -25 0 -51 18 -55 15 -3 16 1 8 29 -12 40 -18 46 -26
26z"/>
<path d="M2605 2678 c10 -34 23 -44 31 -25 9 23 -2 47 -21 47 -12 0 -15 -6
-10 -22z"/>
<path d="M2865 2331 c-67 -51 -230 -143 -284 -161 l-44 -14 33 -14 c146 -59
313 -23 443 97 l58 54 -36 13 c-20 6 -53 24 -74 38 -20 14 -39 26 -42 26 -2 0
-26 -18 -54 -39z"/>
<path d="M1212 2650 c-79 -9 -145 -20 -148 -23 -3 -3 -3 -20 1 -37 7 -32 8
-32 52 -26 25 3 97 11 160 18 98 10 116 10 128 -3 13 -12 13 -18 2 -33 -10
-14 -45 -22 -168 -37 -84 -10 -155 -19 -156 -19 -2 0 -3 -16 -3 -35 0 -21 5
-35 13 -35 6 0 78 7 158 17 80 9 154 13 163 10 24 -9 20 -46 -6 -57 -13 -5
-68 -14 -123 -20 -197 -22 -185 -18 -185 -56 0 -41 -5 -41 197 -16 122 15 146
21 168 42 32 31 42 83 23 124 -10 21 -14 49 -11 82 5 46 2 55 -23 83 -38 41
-65 44 -242 21z"/>
<path d="M3653 2480 c-33 -19 -45 -48 -58 -135 l-7 -40 190 -39 c104 -21 195
-36 201 -32 6 4 11 20 11 35 0 27 -4 29 -62 41 -89 18 -95 23 -69 49 23 23 57
26 108 12 37 -11 53 1 53 40 0 26 -3 28 -55 34 -31 4 -73 5 -95 1 -30 -5 -41
-2 -48 10 -10 17 -75 43 -112 44 -14 0 -39 -9 -57 -20z m118 -70 c12 -7 19
-21 19 -41 0 -27 -3 -30 -22 -26 -13 3 -40 9 -60 12 -37 7 -44 18 -32 49 7 19
64 22 95 6z"/>
<path d="M1328 2221 c-59 -26 -116 -55 -127 -65 -40 -36 -35 -104 11 -153 38
-40 67 -38 190 13 62 26 123 54 134 61 81 52 32 195 -65 192 -20 0 -84 -22
-143 -48z m176 -43 c8 -13 7 -21 -4 -32 -19 -19 -203 -96 -229 -96 -21 0 -33
22 -25 44 6 15 212 107 233 103 8 -1 19 -10 25 -19z"/>
<path d="M3536 2189 c-20 -45 -33 -86 -29 -90 14 -14 345 -160 354 -157 6 2
26 39 46 82 34 75 35 80 17 93 -30 22 -43 15 -65 -37 -12 -27 -23 -50 -24 -50
-2 0 -24 9 -49 20 -43 18 -45 21 -36 45 6 15 14 34 20 44 7 15 4 20 -16 30
-37 16 -41 14 -54 -24 -6 -19 -15 -37 -20 -40 -9 -6 -90 31 -90 40 0 2 10 25
22 50 23 47 20 58 -18 69 -18 6 -25 -4 -58 -75z"/>
<path d="M1579 2030 c-19 -6 -224 -149 -272 -191 -11 -9 21 -59 37 -59 6 0 65
41 131 91 123 92 157 105 163 62 3 -18 -20 -39 -122 -115 -69 -51 -125 -97
-125 -103 0 -5 8 -21 18 -34 l18 -23 135 101 c75 55 138 108 142 117 3 8 6 33
6 54 0 67 -66 117 -131 100z"/>
<path d="M3424 1996 c-32 -32 -39 -53 -34 -101 3 -29 14 -40 123 -123 121 -91
156 -100 209 -53 38 33 53 77 38 115 -5 13 -37 45 -71 71 l-62 48 -19 -24
c-36 -47 -39 -55 -18 -74 16 -14 23 -15 34 -6 12 10 21 7 47 -17 28 -25 30
-31 19 -51 -16 -31 -31 -25 -138 55 -69 52 -92 74 -92 92 0 30 24 38 54 19 22
-15 25 -15 38 1 30 34 29 41 -4 62 -49 30 -84 26 -124 -14z"/>
<path d="M1650 1715 c-69 -79 -126 -148 -127 -152 -1 -5 30 -34 68 -67 68 -57
70 -58 89 -41 11 10 20 22 20 26 0 5 -18 25 -41 46 l-40 38 33 39 34 39 35
-31 36 -31 23 25 24 24 -37 31 -37 31 31 39 31 39 44 -37 45 -36 22 22 22 23
-65 59 c-36 32 -70 59 -76 59 -5 0 -66 -65 -134 -145z"/>
<path d="M3234 1796 c-37 -37 -44 -78 -22 -119 21 -39 200 -247 212 -247 7 0
21 9 31 20 17 19 17 21 -10 55 -26 35 -26 37 -9 56 23 26 30 24 63 -13 28 -31
29 -32 55 -15 14 10 26 21 26 25 0 10 -174 221 -206 250 -40 35 -97 31 -140
-12z m139 -98 c49 -57 50 -58 32 -78 -10 -11 -23 -20 -29 -20 -15 0 -106 114
-106 132 0 48 44 33 103 -34z"/>
<path d="M1907 1657 c-38 -73 -46 -122 -26 -155 9 -14 4 -32 -25 -90 -20 -39
-36 -73 -36 -76 0 -6 60 -29 64 -25 2 2 21 34 41 72 32 58 40 67 65 67 39 0
71 32 111 109 l33 63 -25 19 c-13 10 -27 19 -31 19 -4 0 -24 -31 -45 -70 -30
-55 -43 -70 -61 -70 -39 0 -38 29 2 103 21 38 36 70 34 71 -28 18 -58 36 -60
36 -2 0 -20 -33 -41 -73z"/>
<path d="M3020 1663 c-71 -49 -68 -87 20 -263 39 -77 74 -140 80 -140 5 0 20
5 33 11 l25 11 -70 145 c-38 79 -68 152 -66 161 2 11 13 17 28 17 22 0 33 -17
95 -137 39 -75 73 -139 76 -143 8 -7 59 15 59 27 0 4 -33 75 -74 156 -77 155
-93 172 -154 172 -15 0 -39 -8 -52 -17z"/>
<path d="M2783 1578 c-43 -11 -73 -52 -73 -97 1 -20 16 -99 34 -176 l32 -140
34 3 c19 1 35 4 36 5 2 1 -2 22 -7 46 -11 48 -3 61 37 61 17 0 23 -9 30 -42 9
-40 12 -43 39 -40 17 2 33 6 36 10 12 13 -67 322 -87 343 -27 26 -72 37 -111
27z m54 -70 c14 -18 43 -152 35 -159 -4 -4 -19 -9 -33 -13 -26 -6 -27 -4 -44
75 -13 63 -14 83 -5 94 15 18 34 19 47 3z"/>
<path d="M2332 1533 c-32 -32 -37 -54 -48 -254 l-6 -116 31 -5 c18 -3 34 -1
36 3 3 4 10 76 16 160 11 165 20 190 61 168 18 -10 19 -18 14 -87 -3 -43 -9
-116 -12 -164 l-6 -88 35 0 c33 0 36 2 41 38 3 20 8 90 12 155 4 83 11 122 21
133 52 52 64 -37 36 -283 l-5 -53 35 0 c20 0 38 4 41 8 3 5 8 83 12 174 l7
167 -31 31 c-30 29 -36 31 -99 30 -38 0 -89 2 -115 6 -43 5 -50 3 -76 -23z"/>
</g>
</svg>
